<svg width="10" height="18" viewBox="0 0 10 18" fill="none" xmlns="http://www.w3.org/2000/svg">
<path d="M9.20994 1.28994C9.11697 1.19621 9.00638 1.12182 8.88452 1.07105C8.76266 1.02028 8.63195 0.994141 8.49994 0.994141C8.36793 0.994141 8.23722 1.02028 8.11536 1.07105C7.9935 1.12182 7.8829 1.19621 7.78994 1.28994L0.789939 8.28994C0.696211 8.3829 0.621816 8.4935 0.571048 8.61536C0.520279 8.73722 0.494141 8.86793 0.494141 8.99994C0.494141 9.13195 0.520279 9.26266 0.571048 9.38452C0.621816 9.50638 0.696211 9.61697 0.789939 9.70994L7.78994 16.7099C7.8829 16.8037 7.9935 16.8781 8.11536 16.9288C8.23722 16.9796 8.36793 17.0057 8.49994 17.0057C8.63195 17.0057 8.76266 16.9796 8.88452 16.9288C9.00638 16.8781 9.11697 16.8037 9.20994 16.7099C9.30367 16.617 9.37806 16.5064 9.42883 16.3845C9.4796 16.2627 9.50574 16.132 9.50574 15.9999C9.50574 15.8679 9.4796 15.7372 9.42883 15.6154C9.37806 15.4935 9.30367 15.3829 9.20994 15.2899L2.90994 8.99994L9.20994 2.70994C9.30367 2.61698 9.37806 2.50638 9.42883 2.38452C9.4796 2.26266 9.50574 2.13195 9.50574 1.99994C9.50574 1.86793 9.4796 1.73722 9.42883 1.61536C9.37806 1.4935 9.30367 1.3829 9.20994 1.28994Z" fill="black"/>
</svg>
