<svg width="17" height="17" viewBox="0 0 17 17" fill="none" xmlns="http://www.w3.org/2000/svg">
<path d="M9.83312 5.5C10.2652 5.49974 10.6805 5.6673 10.9915 5.96736C11.3024 6.26741 11.4847 6.6765 11.4998 7.10834C11.4989 7.3187 11.4556 7.52673 11.3726 7.72001C11.2895 7.91329 11.1684 8.08787 11.0165 8.23334C10.9383 8.31081 10.8764 8.40297 10.834 8.50452C10.7917 8.60607 10.77 8.71499 10.77 8.825C10.77 8.93501 10.7917 9.04393 10.834 9.14548C10.8764 9.24703 10.9383 9.3392 11.0165 9.41667C11.0936 9.49541 11.1857 9.55805 11.2872 9.60096C11.3888 9.64388 11.4979 9.66621 11.6081 9.66667C11.8256 9.66798 12.0349 9.58424 12.1915 9.43334C12.5006 9.13027 12.7462 8.76849 12.9136 8.36923C13.081 7.96997 13.167 7.54128 13.1665 7.10834C13.1512 6.23443 12.7932 5.40149 12.1698 4.78893C11.5463 4.17637 10.7072 3.8332 9.83312 3.83334C9.61211 3.83334 9.40014 3.92113 9.24386 4.07741C9.08758 4.23369 8.99979 4.44566 8.99979 4.66667C8.99979 4.88768 9.08758 5.09964 9.24386 5.25592C9.40014 5.41221 9.61211 5.5 9.83312 5.5Z" fill="#8C8C8C"/>
<path d="M1.49979 16.3333C1.60946 16.334 1.71818 16.3129 1.81971 16.2715C1.92124 16.23 2.01359 16.1689 2.09145 16.0917L5.74979 12.425C6.91378 13.3403 8.35236 13.8365 9.83312 13.8333C11.1517 13.8333 12.4406 13.4423 13.5369 12.7098C14.6332 11.9773 15.4877 10.9361 15.9923 9.71789C16.4969 8.49972 16.6289 7.15927 16.3717 5.86607C16.1145 4.57286 15.4795 3.38497 14.5472 2.45262C13.6148 1.52027 12.4269 0.885336 11.1337 0.628101C9.84052 0.370866 8.50007 0.502889 7.2819 1.00747C6.06372 1.51206 5.02253 2.36654 4.28999 3.46287C3.55745 4.5592 3.16645 5.84813 3.16645 7.16667C3.16331 8.64743 3.65948 10.086 4.57479 11.25L0.90812 14.9083C0.830013 14.9858 0.768018 15.078 0.72571 15.1795C0.683403 15.2811 0.661621 15.39 0.661621 15.5C0.661621 15.61 0.683403 15.7189 0.72571 15.8205C0.768018 15.922 0.830013 16.0142 0.90812 16.0917C0.985986 16.1689 1.07833 16.23 1.17986 16.2715C1.2814 16.3129 1.39011 16.334 1.49979 16.3333ZM9.83312 2.16667C10.822 2.16667 11.7887 2.45991 12.611 3.00932C13.4332 3.55873 14.0741 4.33962 14.4525 5.25325C14.831 6.16688 14.93 7.17222 14.737 8.14212C14.5441 9.11203 14.0679 10.0029 13.3687 10.7022C12.6694 11.4015 11.7785 11.8777 10.8086 12.0706C9.83867 12.2635 8.83333 12.1645 7.9197 11.7861C7.00607 11.4076 6.22518 10.7668 5.67577 9.94452C5.12637 9.12227 4.83312 8.15558 4.83312 7.16667C4.83312 5.84059 5.3599 4.56882 6.29759 3.63114C7.23527 2.69345 8.50704 2.16667 9.83312 2.16667Z" fill="#8C8C8C"/>
</svg>
