<svg width="30" height="21" viewBox="0 0 30 21" fill="none" xmlns="http://www.w3.org/2000/svg">
<path d="M24.2 4H22V1C22 0.734784 21.8946 0.48043 21.7071 0.292893C21.5196 0.105357 21.2652 0 21 0H1C0.734784 0 0.48043 0.105357 0.292893 0.292893C0.105357 0.48043 0 0.734784 0 1V15C0 15.2652 0.105357 15.5196 0.292893 15.7071C0.48043 15.8946 0.734784 16 1 16H3.14C3.05221 16.3263 3.00518 16.6622 3 17C3 18.0609 3.42143 19.0783 4.17157 19.8284C4.92172 20.5786 5.93913 21 7 21C8.06087 21 9.07828 20.5786 9.82843 19.8284C10.5786 19.0783 11 18.0609 11 17C10.9948 16.6622 10.9478 16.3263 10.86 16H18.14C18.0522 16.3263 18.0052 16.6622 18 17C18 18.0609 18.4214 19.0783 19.1716 19.8284C19.9217 20.5786 20.9391 21 22 21C23.0609 21 24.0783 20.5786 24.8284 19.8284C25.5786 19.0783 26 18.0609 26 17C25.9948 16.6622 25.9478 16.3263 25.86 16H29C29.2652 16 29.5196 15.8946 29.7071 15.7071C29.8946 15.5196 30 15.2652 30 15V10.45C30 6.9 27.4 4 24.2 4ZM2 2H20V13.55C19.7791 13.6794 19.5715 13.8301 19.38 14H9.62C8.89947 13.3555 7.96669 12.9992 7 12.9992C6.03331 12.9992 5.10053 13.3555 4.38 14H2V2ZM7 19C6.6435 18.9989 6.29376 18.9026 5.987 18.721C5.68024 18.5393 5.42761 18.279 5.25525 17.9669C5.0829 17.6548 4.99709 17.3024 5.00672 16.946C5.01634 16.5896 5.12105 16.2423 5.31 15.94C5.45656 15.8908 5.58973 15.8084 5.69904 15.699C5.80835 15.5897 5.89083 15.4566 5.94 15.31C6.25786 15.1113 6.62516 15.006 7 15.006C7.37484 15.006 7.74214 15.1113 8.06 15.31C8.10917 15.4566 8.19165 15.5897 8.30096 15.699C8.41027 15.8084 8.54344 15.8908 8.69 15.94C8.87895 16.2423 8.98366 16.5896 8.99328 16.946C9.00291 17.3024 8.9171 17.6548 8.74475 17.9669C8.5724 18.279 8.31976 18.5393 8.013 18.721C7.70624 18.9026 7.3565 18.9989 7 19ZM22 19C21.6435 18.9989 21.2938 18.9026 20.987 18.721C20.6802 18.5393 20.4276 18.279 20.2553 17.9669C20.0829 17.6548 19.9971 17.3024 20.0067 16.946C20.0163 16.5896 20.1211 16.2423 20.31 15.94C20.4566 15.8908 20.5897 15.8084 20.699 15.699C20.8084 15.5897 20.8908 15.4566 20.94 15.31C21.2572 15.1092 21.6246 15.0018 22 15C22.5281 14.9996 23.035 15.2081 23.41 15.58C23.4477 15.6377 23.4913 15.6913 23.54 15.74C23.8338 16.0945 23.9963 16.5396 24 17C24 17.5304 23.7893 18.0391 23.4142 18.4142C23.0391 18.7893 22.5304 19 22 19ZM28 14H24.62C23.896 13.3614 22.9654 13.0062 22 13V6H24.2C26.3 6 28 8 28 10.45V14Z" fill="#76B043"/>
<path d="M5 6H14C14.2652 6 14.5196 5.89464 14.7071 5.70711C14.8946 5.51957 15 5.26522 15 5C15 4.73478 14.8946 4.48043 14.7071 4.29289C14.5196 4.10536 14.2652 4 14 4H5C4.73478 4 4.48043 4.10536 4.29289 4.29289C4.10536 4.48043 4 4.73478 4 5C4 5.26522 4.10536 5.51957 4.29289 5.70711C4.48043 5.89464 4.73478 6 5 6Z" fill="#76B043"/>
<path d="M5 10H14C14.2652 10 14.5196 9.89464 14.7071 9.70711C14.8946 9.51957 15 9.26522 15 9C15 8.73478 14.8946 8.48043 14.7071 8.29289C14.5196 8.10536 14.2652 8 14 8H5C4.73478 8 4.48043 8.10536 4.29289 8.29289C4.10536 8.48043 4 8.73478 4 9C4 9.26522 4.10536 9.51957 4.29289 9.70711C4.48043 9.89464 4.73478 10 5 10Z" fill="#76B043"/>
</svg>
