<svg width="16" height="17" viewBox="0 0 16 17" fill="none" xmlns="http://www.w3.org/2000/svg">
<path d="M7.00019 6.99994V15.9999C7.00019 16.2652 7.10554 16.5195 7.29308 16.707C7.48061 16.8946 7.73497 16.9999 8.00019 16.9999C8.2654 16.9999 8.51976 16.8946 8.70729 16.707C8.89483 16.5195 9.00019 16.2652 9.00019 15.9999V6.99994C9.00019 6.73472 8.89483 6.48037 8.70729 6.29283C8.51976 6.1053 8.2654 5.99994 8.00019 5.99994C7.73497 5.99994 7.48061 6.1053 7.29308 6.29283C7.10554 6.48037 7.00019 6.73472 7.00019 6.99994Z" fill="black"/>
<path d="M14.0002 8.99994C14.1318 9.0007 14.2623 8.97548 14.3841 8.92571C14.5059 8.87595 14.6167 8.80262 14.7102 8.70994C14.8039 8.61697 14.8783 8.50637 14.9291 8.38452C14.9798 8.26266 15.006 8.13195 15.006 7.99994C15.006 7.86793 14.9798 7.73722 14.9291 7.61536C14.8783 7.4935 14.8039 7.3829 14.7102 7.28994L8.71018 1.28994C8.61722 1.19621 8.50662 1.12182 8.38476 1.07105C8.2629 1.02028 8.1322 0.994141 8.00019 0.994141C7.86817 0.994141 7.73747 1.02028 7.61561 1.07105C7.49375 1.12182 7.38315 1.19621 7.29019 1.28994L1.29018 7.28994C1.10188 7.47824 0.996094 7.73364 0.996094 7.99994C0.996094 8.26624 1.10188 8.52163 1.29018 8.70994C1.47849 8.89824 1.73388 9.00403 2.00019 9.00403C2.26649 9.00403 2.52188 8.89824 2.71019 8.70994L8.00019 3.40994L13.2902 8.70994C13.3836 8.80262 13.4944 8.87595 13.6163 8.92571C13.7381 8.97548 13.8686 9.0007 14.0002 8.99994Z" fill="black"/>
</svg>
