<svg width="18" height="10" viewBox="0 0 18 10" fill="none" xmlns="http://www.w3.org/2000/svg">
<path d="M1.29 9.21C1.38296 9.30373 1.49356 9.37812 1.61542 9.42889C1.73728 9.47966 1.86799 9.5058 2 9.5058C2.13201 9.5058 2.26272 9.47966 2.38458 9.42889C2.50644 9.37812 2.61704 9.30373 2.71 9.21L9 2.91L15.29 9.21C15.383 9.30373 15.4936 9.37812 15.6154 9.42889C15.7373 9.47966 15.868 9.5058 16 9.5058C16.132 9.5058 16.2627 9.47966 16.3846 9.42889C16.5064 9.37812 16.617 9.30373 16.71 9.21C16.8037 9.11704 16.8781 9.00644 16.9289 8.88458C16.9797 8.76272 17.0058 8.63201 17.0058 8.5C17.0058 8.36799 16.9797 8.23728 16.9289 8.11542C16.8781 7.99356 16.8037 7.88296 16.71 7.79L9.71 0.79C9.61704 0.696272 9.50644 0.621877 9.38458 0.571109C9.26272 0.52034 9.13201 0.494202 9 0.494202C8.86799 0.494202 8.73728 0.52034 8.61542 0.571109C8.49356 0.621877 8.38296 0.696272 8.29 0.79L1.29 7.79C1.19627 7.88296 1.12188 7.99356 1.07111 8.11542C1.02034 8.23728 0.994202 8.36799 0.994202 8.5C0.994202 8.63201 1.02034 8.76272 1.07111 8.88458C1.12188 9.00644 1.19627 9.11704 1.29 9.21Z" fill="black"/>
</svg>
