<svg width="10" height="18" viewBox="0 0 10 18" fill="none" xmlns="http://www.w3.org/2000/svg">
<path d="M0.789939 16.7099C0.882902 16.8037 0.993503 16.8781 1.11536 16.9288C1.23722 16.9796 1.36793 17.0057 1.49994 17.0057C1.63195 17.0057 1.76266 16.9796 1.88452 16.9288C2.00638 16.8781 2.11698 16.8037 2.20994 16.7099L9.20994 9.70994C9.30367 9.61698 9.37806 9.50638 9.42883 9.38452C9.4796 9.26266 9.50574 9.13195 9.50574 8.99994C9.50574 8.86793 9.4796 8.73722 9.42883 8.61536C9.37806 8.49351 9.30367 8.38291 9.20994 8.28994L2.20994 1.28994C2.02164 1.10164 1.76624 0.99585 1.49994 0.99585C1.23364 0.99585 0.978243 1.10164 0.789939 1.28994C0.601635 1.47824 0.495848 1.73364 0.495848 1.99994C0.495848 2.26624 0.601635 2.52164 0.789939 2.70994L7.08994 8.99994L0.789939 15.2899C0.696211 15.3829 0.621816 15.4935 0.571048 15.6154C0.520279 15.7372 0.494141 15.8679 0.494141 15.9999C0.494141 16.132 0.520279 16.2627 0.571048 16.3845C0.621816 16.5064 0.696211 16.617 0.789939 16.7099Z" fill="black"/>
</svg>
