<svg width="13" height="12" viewBox="0 0 13 12" fill="none" xmlns="http://www.w3.org/2000/svg">
<path d="M0.75 6.75014H7.5C7.69891 6.75014 7.88968 6.67112 8.03033 6.53047C8.17098 6.38982 8.25 6.19905 8.25 6.00014C8.25 5.80123 8.17098 5.61046 8.03033 5.46981C7.88968 5.32916 7.69891 5.25014 7.5 5.25014H0.75C0.551088 5.25014 0.360322 5.32916 0.21967 5.46981C0.0790178 5.61046 0 5.80123 0 6.00014C0 6.19905 0.0790178 6.38982 0.21967 6.53047C0.360322 6.67112 0.551088 6.75014 0.75 6.75014Z" fill="black"/>
<path d="M7.2825 0.967639C7.14127 0.826411 6.94973 0.74707 6.75 0.74707C6.55027 0.74707 6.35873 0.826411 6.2175 0.967639C6.07627 1.10887 5.99693 1.30041 5.99693 1.50014C5.99693 1.69987 6.07627 1.89141 6.2175 2.03264L10.1925 6.00014L6.2175 9.96764C6.1472 10.0374 6.09141 10.1203 6.05333 10.2117C6.01525 10.3031 5.99565 10.4011 5.99565 10.5001C5.99565 10.5991 6.01525 10.6972 6.05333 10.7886C6.09141 10.88 6.1472 10.9629 6.2175 11.0326C6.28722 11.1029 6.37017 11.1587 6.46157 11.1968C6.55296 11.2349 6.65099 11.2545 6.75 11.2545C6.84901 11.2545 6.94704 11.2349 7.03843 11.1968C7.12983 11.1587 7.21278 11.1029 7.2825 11.0326L11.7825 6.53264C11.8528 6.46292 11.9086 6.37997 11.9467 6.28857C11.9847 6.19718 12.0043 6.09915 12.0043 6.00014C12.0043 5.90113 11.9847 5.8031 11.9467 5.71171C11.9086 5.62031 11.8528 5.53736 11.7825 5.46764L7.2825 0.967639Z" fill="black"/>
</svg>
