<svg width="13" height="12" viewBox="0 0 13 12" fill="none" xmlns="http://www.w3.org/2000/svg">
<path d="M12.25 5.25014H5.49995C5.30104 5.25014 5.11028 5.32916 4.96962 5.46981C4.82897 5.61046 4.74995 5.80123 4.74995 6.00014C4.74995 6.19905 4.82897 6.38982 4.96962 6.53047C5.11028 6.67112 5.30104 6.75014 5.49995 6.75014H12.25C12.4489 6.75014 12.6396 6.67112 12.7803 6.53047C12.9209 6.38982 13 6.19905 13 6.00014C13 5.80123 12.9209 5.61046 12.7803 5.46981C12.6396 5.32916 12.4489 5.25014 12.25 5.25014Z" fill="black"/>
<path d="M5.71745 11.0326C5.78718 11.1029 5.87013 11.1587 5.96152 11.1968C6.05292 11.2349 6.15095 11.2545 6.24995 11.2545C6.34896 11.2545 6.44699 11.2349 6.53839 11.1968C6.62978 11.1587 6.71273 11.1029 6.78245 11.0326C6.85275 10.9629 6.90855 10.88 6.94662 10.7886C6.9847 10.6972 7.0043 10.5991 7.0043 10.5001C7.0043 10.4011 6.9847 10.3031 6.94662 10.2117C6.90855 10.1203 6.85275 10.0374 6.78245 9.96764L2.80745 6.00014L6.78245 2.03264C6.85238 1.96271 6.90785 1.87969 6.9457 1.78833C6.98354 1.69696 7.00302 1.59903 7.00302 1.50014C7.00302 1.40124 6.98354 1.30332 6.9457 1.21195C6.90785 1.12059 6.85238 1.03757 6.78245 0.967639C6.71252 0.89771 6.62951 0.842239 6.53814 0.804394C6.44677 0.766549 6.34885 0.74707 6.24995 0.74707C6.15106 0.74707 6.05313 0.766549 5.96177 0.804394C5.8704 0.842239 5.78738 0.89771 5.71745 0.967639L1.21745 5.46764C1.14716 5.53736 1.09136 5.62031 1.05329 5.71171C1.01521 5.8031 0.995605 5.90113 0.995605 6.00014C0.995605 6.09915 1.01521 6.19718 1.05329 6.28857C1.09136 6.37997 1.14716 6.46292 1.21745 6.53264L5.71745 11.0326Z" fill="black"/>
</svg>
