<svg width="18" height="14" viewBox="0 0 18 14" fill="none" xmlns="http://www.w3.org/2000/svg">
<path d="M1.5 2H16.5C16.7652 2 17.0196 1.89464 17.2071 1.70711C17.3946 1.51957 17.5 1.26522 17.5 1C17.5 0.734784 17.3946 0.48043 17.2071 0.292893C17.0196 0.105357 16.7652 0 16.5 0H1.5C1.23478 0 0.98043 0.105357 0.792893 0.292893C0.605357 0.48043 0.5 0.734784 0.5 1C0.5 1.26522 0.605357 1.51957 0.792893 1.70711C0.98043 1.89464 1.23478 2 1.5 2Z" fill="black"/>
<path d="M1.5 14H16.5C16.7652 14 17.0196 13.8946 17.2071 13.7071C17.3946 13.5196 17.5 13.2652 17.5 13C17.5 12.7348 17.3946 12.4804 17.2071 12.2929C17.0196 12.1054 16.7652 12 16.5 12H1.5C1.23478 12 0.98043 12.1054 0.792893 12.2929C0.605357 12.4804 0.5 12.7348 0.5 13C0.5 13.2652 0.605357 13.5196 0.792893 13.7071C0.98043 13.8946 1.23478 14 1.5 14Z" fill="black"/>
<path d="M1.5 8H16.5C16.7652 8 17.0196 7.89464 17.2071 7.70711C17.3946 7.51957 17.5 7.26522 17.5 7C17.5 6.73478 17.3946 6.48043 17.2071 6.29289C17.0196 6.10536 16.7652 6 16.5 6H1.5C1.23478 6 0.98043 6.10536 0.792893 6.29289C0.605357 6.48043 0.5 6.73478 0.5 7C0.5 7.26522 0.605357 7.51957 0.792893 7.70711C0.98043 7.89464 1.23478 8 1.5 8Z" fill="black"/>
</svg>
