<svg width="20" height="22" viewBox="0 0 20 22" fill="none" xmlns="http://www.w3.org/2000/svg">
<path d="M10 13C4.48 13 0 17 0 22H20C20 17 15.52 13 10 13ZM2.33 20C2.94317 18.4819 4.0074 17.1884 5.379 16.2943C6.75059 15.4001 8.36351 14.9484 10 15C11.6365 14.9484 13.2494 15.4001 14.621 16.2943C15.9926 17.1884 17.0568 18.4819 17.67 20H2.33Z" fill="black"/>
<path d="M10 12C11.1867 12 12.3467 11.6481 13.3334 10.9888C14.3201 10.3295 15.0892 9.39246 15.5433 8.2961C15.9974 7.19975 16.1162 5.99335 15.8847 4.82946C15.6532 3.66558 15.0818 2.59648 14.2426 1.75736C13.4035 0.918247 12.3344 0.346802 11.1705 0.115291C10.0067 -0.11622 8.80026 0.00259972 7.7039 0.456726C6.60754 0.910851 5.67047 1.67989 5.01118 2.66658C4.35189 3.65328 4 4.81331 4 6C4 7.5913 4.63214 9.11743 5.75736 10.2426C6.88258 11.3679 8.4087 12 10 12ZM10 2C10.7911 2 11.5645 2.2346 12.2223 2.67412C12.8801 3.11365 13.3928 3.73836 13.6955 4.46927C13.9983 5.20017 14.0775 6.00444 13.9231 6.78036C13.7688 7.55629 13.3878 8.26902 12.8284 8.82843C12.269 9.38784 11.5563 9.7688 10.7804 9.92314C10.0044 10.0775 9.20017 9.99827 8.46927 9.69552C7.73836 9.39277 7.11365 8.88008 6.67412 8.22228C6.2346 7.56449 6 6.79113 6 6C6 4.93914 6.42143 3.92172 7.17157 3.17158C7.92172 2.42143 8.93913 2 10 2Z" fill="black"/>
</svg>
