<?xml version="1.0" standalone="no"?>
<!DOCTYPE svg PUBLIC "-//W3C//DTD SVG 20010904//EN"
 "http://www.w3.org/TR/2001/REC-SVG-20010904/DTD/svg10.dtd">
<svg version="1.0" xmlns="http://www.w3.org/2000/svg"
 width="158.000000pt" height="120.000000pt" viewBox="0 0 158.000000 120.000000"
 preserveAspectRatio="xMidYMid meet">

<g transform="translate(0.000000,120.000000) scale(0.100000,-0.100000)"
fill="#000000" stroke="none">
<path d="M890 1149 c-19 -5 -52 -14 -73 -20 l-39 -10 54 -32 c54 -33 99 -68
127 -99 9 -11 30 -18 51 -18 20 0 57 -7 83 -16 55 -19 144 -95 153 -131 4 -13
18 -29 31 -34 27 -10 156 -12 191 -3 27 8 26 16 -10 112 -26 70 -118 167 -197
206 -96 49 -274 70 -371 45z"/>
<path d="M540 921 c-39 -61 -65 -140 -80 -238 -21 -135 6 -273 75 -387 19 -32
33 -62 30 -66 -7 -11 72 -82 126 -113 49 -29 165 -62 249 -72 79 -9 227 18
303 54 123 59 232 206 239 321 l3 45 -110 0 -109 0 -21 -53 c-42 -112 -117
-168 -234 -175 -144 -10 -260 78 -305 231 l-15 52 73 0 74 0 6 31 c8 40 8 107
0 137 -6 20 -12 22 -76 22 -67 0 -69 1 -63 23 4 12 20 46 36 76 l29 54 -26 24
c-31 29 -98 64 -141 73 -30 7 -34 5 -63 -39z"/>
</g>
</svg>
