<svg width="22" height="22" viewBox="0 0 22 22" fill="none" xmlns="http://www.w3.org/2000/svg">
<path d="M3 22H19C19.7956 22 20.5587 21.6839 21.1213 21.1213C21.6839 20.5587 22 19.7956 22 19V3C22 2.20435 21.6839 1.44129 21.1213 0.87868C20.5587 0.316071 19.7956 0 19 0H3C2.20435 0 1.44129 0.316071 0.87868 0.87868C0.316071 1.44129 0 2.20435 0 3V19C0 19.7956 0.316071 20.5587 0.87868 21.1213C1.44129 21.6839 2.20435 22 3 22ZM2 3C2 2.73478 2.10536 2.48043 2.29289 2.29289C2.48043 2.10536 2.73478 2 3 2H19C19.2652 2 19.5196 2.10536 19.7071 2.29289C19.8946 2.48043 20 2.73478 20 3V19C20 19.2652 19.8946 19.5196 19.7071 19.7071C19.5196 19.8946 19.2652 20 19 20H3C2.73478 20 2.48043 19.8946 2.29289 19.7071C2.10536 19.5196 2 19.2652 2 19V3Z" fill="black"/>
<path d="M9.45 18H12.18V11.41H14.42V9C14.4195 8.92858 14.3907 8.86026 14.34 8.81C14.317 8.78517 14.2892 8.76528 14.2582 8.75153C14.2273 8.73777 14.1939 8.73045 14.16 8.73H12.16V7.46C12.16 6.85 12.31 6.54 13.09 6.54H14.5V4H12.56C12.1368 3.9832 11.7148 4.05621 11.3218 4.21424C10.9288 4.37226 10.5737 4.61171 10.2799 4.91684C9.98611 5.22197 9.76027 5.58585 9.61723 5.98454C9.47418 6.38323 9.41719 6.8077 9.45 7.23V8.72H7.5V11.41H9.45V18Z" fill="black"/>
</svg>
