<?xml version="1.0" standalone="no"?>
<!DOCTYPE svg PUBLIC "-//W3C//DTD SVG 20010904//EN"
 "http://www.w3.org/TR/2001/REC-SVG-20010904/DTD/svg10.dtd">
<svg version="1.0" xmlns="http://www.w3.org/2000/svg"
 width="237.000000pt" height="193.000000pt" viewBox="0 0 237.000000 193.000000"
 preserveAspectRatio="xMidYMid meet">

<g transform="translate(0.000000,193.000000) scale(0.100000,-0.100000)"
fill="#000000" stroke="none">
<path d="M2002 1918 c-7 -7 -12 -8 -12 -4 0 5 -7 3 -15 -4 -8 -7 -15 -10 -15
-6 0 3 -22 -3 -50 -14 -27 -11 -50 -18 -50 -15 0 2 -19 -3 -42 -11 -24 -9 -47
-17 -53 -18 -5 -1 -16 -5 -22 -9 -7 -5 -13 -6 -13 -2 0 3 -16 -1 -35 -9 -19
-8 -35 -12 -35 -9 0 3 -7 0 -15 -7 -8 -7 -15 -10 -15 -6 0 3 -16 0 -35 -8 -19
-8 -35 -12 -35 -9 0 3 -7 0 -15 -7 -8 -7 -15 -10 -15 -6 0 3 -29 -5 -65 -19
-36 -13 -65 -22 -65 -19 0 2 -16 -2 -35 -10 -19 -8 -35 -12 -35 -9 0 3 -7 0
-15 -7 -8 -7 -15 -10 -15 -6 0 3 -16 0 -35 -8 -19 -8 -35 -12 -35 -9 0 3 -7 0
-15 -7 -8 -7 -15 -10 -15 -6 0 3 -16 0 -35 -8 -19 -8 -35 -12 -35 -9 0 3 -7 0
-15 -7 -8 -7 -15 -9 -15 -5 0 4 -7 2 -15 -5 -8 -7 -15 -10 -15 -6 0 3 -23 -3
-50 -14 -28 -11 -50 -18 -50 -15 0 3 -22 -4 -50 -15 -27 -11 -50 -18 -50 -15
0 2 -19 -3 -42 -11 -24 -9 -47 -17 -53 -18 -5 -1 -16 -5 -22 -9 -7 -5 -13 -6
-13 -2 0 3 -16 -1 -35 -9 -19 -8 -35 -12 -35 -9 0 3 -7 0 -15 -7 -8 -7 -15
-10 -15 -7 0 4 -30 -5 -67 -19 -38 -14 -68 -25 -68 -23 0 1 -10 -1 -22 -5 -13
-4 -23 -12 -23 -17 0 -5 -4 -9 -10 -9 -12 0 -60 -48 -60 -60 0 -6 -4 -10 -10
-10 -5 0 -10 -6 -10 -14 0 -8 -7 -17 -16 -20 -8 -3 -13 -10 -10 -15 3 -5 -1
-12 -10 -15 -8 -3 -13 -10 -10 -15 3 -5 -1 -12 -10 -15 -8 -3 -12 -10 -9 -16
3 -6 -1 -13 -9 -16 -9 -3 -13 -10 -10 -15 3 -5 -2 -12 -10 -15 -9 -3 -13 -10
-10 -15 3 -5 -2 -12 -10 -15 -9 -3 -13 -10 -10 -15 3 -5 -2 -12 -10 -15 -9 -3
-13 -10 -10 -15 3 -5 -2 -12 -10 -15 -9 -3 -16 -12 -16 -20 0 -8 -4 -14 -10
-14 -5 0 -10 -7 -10 -15 0 -8 -4 -15 -10 -15 -5 0 -10 -7 -10 -15 0 -8 -4 -15
-10 -15 -5 0 -10 -7 -10 -15 0 -8 -4 -15 -10 -15 -5 0 -10 -7 -10 -15 0 -8 -4
-15 -10 -15 -5 0 -10 -7 -10 -15 0 -8 -4 -15 -10 -15 -5 0 -10 -7 -10 -15 0
-8 -4 -15 -10 -15 -5 0 -10 -7 -10 -15 0 -8 -4 -15 -10 -15 -5 0 -10 -7 -10
-15 0 -8 -4 -15 -9 -15 -5 0 -13 -13 -19 -28 -7 -22 -5 -41 8 -80 10 -29 17
-52 15 -52 -2 0 3 -16 11 -35 8 -19 12 -35 9 -35 -2 0 0 -12 6 -27 6 -16 13
-41 16 -58 3 -16 10 -36 15 -42 6 -7 8 -13 4 -13 -3 0 0 -16 8 -35 9 -20 15
-38 16 -40 0 -3 0 -6 1 -7 0 -2 2 -11 4 -21 6 -33 36 -88 45 -82 4 3 10 1 12
-5 2 -6 13 -12 25 -14 12 -3 33 -12 47 -21 14 -10 26 -14 26 -11 0 4 13 0 30
-8 16 -9 44 -23 60 -32 17 -8 30 -13 30 -9 0 3 13 -1 30 -10 16 -8 32 -15 35
-15 3 1 19 -6 35 -15 17 -8 44 -22 60 -31 17 -8 30 -13 30 -9 0 3 13 -1 30
-10 16 -8 31 -14 32 -13 2 2 20 -8 40 -20 21 -13 38 -21 38 -17 0 3 10 0 22
-7 13 -7 26 -13 31 -14 4 -1 8 -2 10 -4 3 -2 23 -7 59 -16 16 -4 50 1 80 11
29 9 60 19 68 20 8 2 15 4 15 5 0 1 11 3 25 6 14 2 32 7 40 11 8 3 18 7 22 7
3 1 10 4 14 9 4 4 19 7 34 7 14 0 30 4 35 9 6 6 24 12 41 15 17 3 47 13 67 21
21 8 37 12 37 9 0 -4 7 -1 15 6 8 7 15 10 15 6 0 -3 12 -1 28 5 15 6 38 13 51
15 13 3 39 11 57 19 19 8 34 11 34 8 0 -3 7 0 15 7 8 7 15 10 15 6 0 -3 16 0
35 8 20 9 38 15 40 16 3 0 6 0 8 1 1 0 15 3 32 5 16 3 34 9 40 14 6 5 25 12
43 15 18 3 54 14 82 25 27 11 50 17 50 15 0 -3 16 1 35 9 19 8 35 12 35 9 0
-3 7 0 15 7 8 7 15 10 15 6 0 -3 16 0 35 8 20 9 38 14 42 13 3 -1 70 124 148
277 96 188 142 288 140 305 -5 41 -15 83 -26 103 -5 10 -7 18 -4 18 3 0 -1 16
-9 35 -8 19 -13 35 -10 35 2 0 -2 16 -10 35 -8 19 -13 35 -11 35 3 0 0 12 -6
28 -6 15 -13 41 -16 57 -3 17 -10 36 -15 43 -6 6 -8 12 -4 12 3 0 0 16 -8 35
-8 19 -13 35 -10 35 2 0 -2 16 -10 35 -8 19 -13 35 -11 35 3 0 0 12 -6 28 -6
15 -13 41 -16 57 -3 17 -10 36 -15 43 -6 6 -8 12 -4 12 3 0 0 16 -8 35 -8 19
-13 35 -10 35 2 0 -2 16 -10 35 -8 19 -13 35 -11 35 3 0 0 12 -6 28 -6 15 -13
41 -16 57 -3 17 -9 32 -14 33 -5 2 -9 10 -9 18 0 9 -4 13 -9 10 -5 -3 -14 1
-21 9 -15 18 -32 19 -48 3z m-190 -445 c26 -23 24 -78 -4 -97 -47 -33 -108 -4
-108 51 0 55 70 85 112 46z m-1094 -246 c3 21 79 53 124 53 79 0 147 -60 149
-130 l0 -25 10 24 c53 132 253 177 364 80 l34 -30 3 28 c2 22 9 29 31 31 26 3
27 6 27 58 l0 54 70 0 70 0 0 -55 0 -55 50 0 50 0 0 -51 0 -51 -50 4 -51 3 3
-95 3 -95 41 2 c42 2 42 1 53 -42 6 -24 11 -46 11 -48 0 -12 -68 -27 -117 -27
-47 0 -58 4 -91 34 l-37 34 -3 116 c-3 105 -5 116 -22 116 -16 0 -17 -4 -9
-32 21 -76 2 -148 -55 -204 -67 -68 -178 -84 -271 -40 -53 24 -74 44 -96 88
-13 25 -14 23 -14 -40 l0 -67 -67 -3 -68 -3 0 120 c0 70 -5 131 -12 146 -21
47 -100 44 -125 -5 -8 -16 -13 -68 -13 -142 l0 -118 -70 0 -70 0 0 264 0 263
68 19 67 20 6 -106 c3 -58 6 -99 7 -93z m1072 -439 l0 -112 53 52 c44 44 58
52 90 52 32 0 37 -3 37 -23 0 -12 -16 -40 -35 -62 -19 -22 -35 -43 -35 -48 0
-4 25 -47 55 -96 30 -49 55 -92 55 -95 0 -3 -28 -6 -63 -6 l-62 0 -34 60 c-27
50 -35 59 -47 49 -9 -7 -14 -30 -14 -60 l0 -49 -55 0 -55 0 0 65 0 65 -105 0
c-59 0 -105 -4 -105 -9 0 -16 42 -41 68 -41 13 0 36 7 51 15 27 13 30 13 57
-16 24 -25 26 -32 14 -40 -65 -43 -126 -56 -186 -40 -48 13 -103 64 -111 103
l-5 28 -95 0 c-89 0 -93 -1 -84 -19 19 -35 80 -42 120 -15 21 15 24 15 52 -12
32 -30 28 -44 -20 -68 -98 -50 -220 -15 -260 75 l-17 37 -23 -64 -23 -64 -53
0 -53 0 -22 72 c-11 40 -24 84 -29 97 -6 20 -12 7 -36 -73 l-29 -97 -55 3 -54
3 -53 150 c-30 83 -54 156 -54 163 0 9 14 12 52 10 l52 -3 26 -90 c15 -49 29
-96 31 -104 3 -8 18 34 34 92 l29 107 52 0 51 0 29 -105 c15 -57 30 -102 33
-100 2 3 16 48 31 102 l27 98 53 3 c48 3 52 1 47 -17 -5 -19 -4 -19 27 0 20
12 49 19 84 19 57 0 95 -15 126 -49 l19 -21 26 24 c35 33 72 46 132 46 57 0
98 -18 128 -56 l21 -27 0 77 c0 66 2 76 18 76 21 1 52 23 52 39 0 6 9 11 20
11 19 0 20 -7 20 -112z m-1402 -118 c26 -25 29 -76 5 -102 -23 -25 -77 -24
-103 4 -27 29 -25 64 5 93 29 30 64 32 93 5z"/>
<path d="M1730 1455 c-8 -10 -9 -24 -4 -42 8 -27 8 -27 12 10 3 35 6 38 30 35
20 -2 27 -9 27 -25 0 -11 3 -25 8 -29 4 -4 7 4 7 17 0 14 -5 30 -12 37 -17 17
-53 15 -68 -3z"/>
<path d="M1757 1400 c-4 -15 0 -20 15 -20 18 0 19 2 7 18 -7 9 -14 18 -15 20
-1 1 -4 -6 -7 -18z"/>
<path d="M1155 1145 c-33 -32 -35 -110 -4 -149 40 -51 128 -28 145 39 24 98
-76 176 -141 110z"/>
<path d="M1187 682 c-28 -30 -20 -37 43 -37 63 0 74 10 44 39 -21 22 -67 20
-87 -2z"/>
<path d="M1494 692 c-6 -4 -16 -16 -22 -27 -10 -19 -7 -20 49 -17 59 4 72 15
47 40 -13 13 -57 16 -74 4z"/>
</g>
</svg>
