<svg width="22" height="22" viewBox="0 0 22 22" fill="none" xmlns="http://www.w3.org/2000/svg">
<path d="M16 22C17.5913 22 19.1174 21.3679 20.2426 20.2426C21.3679 19.1174 22 17.5913 22 16V6C22 4.4087 21.3679 2.88258 20.2426 1.75736C19.1174 0.632141 17.5913 0 16 0H6C4.4087 0 2.88258 0.632141 1.75736 1.75736C0.632141 2.88258 0 4.4087 0 6V16C0 17.5913 0.632141 19.1174 1.75736 20.2426C2.88258 21.3679 4.4087 22 6 22H16ZM2 16V6C2 4.93913 2.42143 3.92172 3.17157 3.17157C3.92172 2.42143 4.93913 2 6 2H16C17.0609 2 18.0783 2.42143 18.8284 3.17157C19.5786 3.92172 20 4.93913 20 6V16C20 17.0609 19.5786 18.0783 18.8284 18.8284C18.0783 19.5786 17.0609 20 16 20H6C4.93913 20 3.92172 19.5786 3.17157 18.8284C2.42143 18.0783 2 17.0609 2 16Z" fill="black"/>
<path d="M17 6.5C17.8284 6.5 18.5 5.82843 18.5 5C18.5 4.17157 17.8284 3.5 17 3.5C16.1716 3.5 15.5 4.17157 15.5 5C15.5 5.82843 16.1716 6.5 17 6.5Z" fill="black"/>
<path d="M11 16C11.9889 16 12.9556 15.7068 13.7779 15.1573C14.6001 14.6079 15.241 13.827 15.6194 12.9134C15.9978 11.9998 16.0969 10.9945 15.9039 10.0245C15.711 9.05464 15.2348 8.16373 14.5355 7.46447C13.8363 6.7652 12.9454 6.289 11.9755 6.09607C11.0055 5.90315 10.0002 6.00216 9.08658 6.3806C8.17295 6.75904 7.39206 7.3999 6.84265 8.22215C6.29325 9.04439 6 10.0111 6 11C6 11.6566 6.12933 12.3068 6.3806 12.9134C6.63188 13.52 7.00017 14.0712 7.46447 14.5355C8.40215 15.4732 9.67392 16 11 16ZM11 8C11.5933 8 12.1734 8.17595 12.6667 8.50559C13.1601 8.83524 13.5446 9.30377 13.7716 9.85195C13.9987 10.4001 14.0581 11.0033 13.9424 11.5853C13.8266 12.1672 13.5409 12.7018 13.1213 13.1213C12.7018 13.5409 12.1672 13.8266 11.5853 13.9424C11.0033 14.0581 10.4001 13.9987 9.85195 13.7716C9.30377 13.5446 8.83524 13.1601 8.50559 12.6667C8.17595 12.1734 8 11.5933 8 11C8 10.2044 8.31607 9.44129 8.87868 8.87868C9.44129 8.31607 10.2044 8 11 8Z" fill="black"/>
</svg>
