<svg width="59" height="20" viewBox="0 0 59 20" fill="none" xmlns="http://www.w3.org/2000/svg">
<path d="M41.247 5.3801H34.497C34.4307 5.3801 34.3671 5.40644 34.3202 5.45333C34.2733 5.50021 34.247 5.5638 34.247 5.6301V7.0001C34.2469 7.03338 34.2537 7.06631 34.267 7.09681C34.2803 7.12732 34.2997 7.15472 34.3242 7.17729C34.3486 7.19986 34.3775 7.2171 34.409 7.22791C34.4405 7.23872 34.4738 7.24287 34.507 7.2401H36.747V14.8901C36.7496 14.96 36.7792 15.0261 36.8295 15.0746C36.8799 15.1231 36.9471 15.1501 37.017 15.1501H38.737C38.8059 15.1501 38.8721 15.1227 38.9208 15.0739C38.9696 15.0252 38.997 14.9591 38.997 14.8901V7.2301H41.227C41.2922 7.23082 41.3554 7.20793 41.405 7.16565C41.4547 7.12338 41.4873 7.06458 41.497 7.0001V5.6301C41.4945 5.56459 41.4674 5.50243 41.421 5.45607C41.3747 5.40971 41.3125 5.38258 41.247 5.3801Z" fill="#8C8C8C"/>
<path d="M48.417 5.4301C47.543 5.30274 46.6601 5.24589 45.777 5.2601C44.077 5.2601 42.567 5.6801 42.567 8.0701V12.4301C42.567 14.8201 44.067 15.2601 45.757 15.2601C46.6466 15.2686 47.5357 15.2118 48.417 15.0901C48.597 15.0901 48.677 14.9801 48.677 14.8101V13.5901C48.677 13.5211 48.6496 13.455 48.6008 13.4063C48.5521 13.3575 48.4859 13.3301 48.417 13.3301H45.647C45.027 13.3301 44.807 13.1201 44.807 12.4301V11.0001H48.307C48.3769 11.0002 48.4441 10.9731 48.4945 10.9246C48.5448 10.8761 48.5744 10.81 48.577 10.7401V9.5301C48.5744 9.46024 48.5448 9.39411 48.4945 9.34562C48.4441 9.29713 48.3769 9.27006 48.307 9.2701H44.807V8.0701C44.807 7.3901 45.027 7.1801 45.647 7.1801H48.417C48.4868 7.17751 48.553 7.14793 48.6015 7.09757C48.65 7.04721 48.677 6.98001 48.677 6.9101V5.6901C48.677 5.5201 48.597 5.4501 48.417 5.4301Z" fill="#8C8C8C"/>
<path d="M55.497 10.1601L58.357 5.6301C58.3604 5.60355 58.3604 5.57666 58.357 5.5501C58.3557 5.52645 58.3498 5.50329 58.3395 5.48193C58.3293 5.46058 58.3149 5.44146 58.2973 5.42567C58.2796 5.40987 58.259 5.39772 58.2367 5.3899C58.2143 5.38208 58.1906 5.37875 58.167 5.3801H56.167C56.0965 5.3904 56.03 5.41887 55.9739 5.4627C55.9177 5.50654 55.874 5.56423 55.847 5.6301L54.217 8.2801L52.537 5.6301C52.457 5.5101 52.357 5.3801 52.207 5.3801H50.147C50.0982 5.37727 50.0502 5.39335 50.0129 5.42501C49.9757 5.45668 49.952 5.50148 49.947 5.5501C49.9402 5.57634 49.9402 5.60387 49.947 5.6301L52.817 10.1301L49.977 14.8801C49.9684 14.9095 49.9684 14.9407 49.977 14.9701C49.977 15.0601 50.037 15.1401 50.177 15.1401H52.117C52.257 15.1401 52.347 15.0401 52.447 14.8801L54.087 12.0701L55.897 14.9401C55.927 15.0038 55.9755 15.0569 56.0361 15.0926C56.0968 15.1282 56.1668 15.1448 56.237 15.1401H58.327C58.427 15.1401 58.497 15.0901 58.497 15.0101C58.5072 14.9674 58.5072 14.9228 58.497 14.8801L55.497 10.1601Z" fill="#8C8C8C"/>
<path d="M33.027 5.4101H31.117C31.0688 5.40956 31.0219 5.42646 30.9852 5.4577C30.9484 5.48894 30.9242 5.53241 30.917 5.5801L29.007 12.6401C29.007 12.7801 28.947 12.8301 28.827 12.8301C28.707 12.8301 28.667 12.7801 28.647 12.6401L26.737 5.5801C26.7279 5.53326 26.7032 5.4909 26.6668 5.46C26.6305 5.4291 26.5847 5.4115 26.537 5.4101H24.657C24.6307 5.4101 24.6047 5.41528 24.5804 5.42533C24.5562 5.43538 24.5341 5.45011 24.5156 5.46868C24.497 5.48725 24.4823 5.5093 24.4722 5.53357C24.4622 5.55783 24.457 5.58384 24.457 5.6101V5.6601C24.457 5.6601 26.787 13.7501 26.817 13.8301C26.9435 14.2571 27.209 14.6297 27.5713 14.8887C27.9336 15.1478 28.372 15.2785 28.817 15.2601C29.2607 15.2791 29.6981 15.1498 30.0602 14.8927C30.4223 14.6356 30.6886 14.2653 30.817 13.8401L33.127 5.6601C33.1369 5.63713 33.1422 5.61242 33.1425 5.58741C33.1428 5.56239 33.1382 5.53756 33.1289 5.51433C33.1196 5.4911 33.1058 5.46994 33.0883 5.45205C33.0709 5.43417 33.05 5.41991 33.027 5.4101Z" fill="#8C8C8C"/>
<path d="M21.6583 0.0219727H4.18831C3.87832 0.0223135 3.57367 0.102704 3.30388 0.255359C3.03408 0.408013 2.80828 0.627757 2.64835 0.893304C2.48842 1.15885 2.39978 1.4612 2.39101 1.77106C2.38224 2.08093 2.45365 2.38781 2.59831 2.66197L4.34831 6.02197H1.17831C0.879129 6.02169 0.59141 6.13702 0.37525 6.34386C0.15909 6.55071 0.0312062 6.83307 0.0183105 7.13197C0.0199044 7.31953 0.0643715 7.50424 0.148311 7.67197L5.76831 18.312C5.83978 18.448 5.93754 18.5684 6.05593 18.6663C6.17432 18.7642 6.31098 18.8376 6.45797 18.8823C6.60496 18.9269 6.75936 18.9419 6.9122 18.9264C7.06504 18.9109 7.21328 18.8652 7.34831 18.792C7.5566 18.6889 7.72525 18.5203 7.82831 18.312L9.35831 15.442L11.2683 19.022C11.4215 19.3107 11.6505 19.5523 11.9306 19.7208C12.2107 19.8892 12.5314 19.9782 12.8583 19.9782C13.1852 19.9782 13.5059 19.8892 13.786 19.7208C14.0661 19.5523 14.2951 19.3107 14.4483 19.022L23.2083 2.54197C23.3383 2.2768 23.399 1.98306 23.3849 1.68809C23.3707 1.39313 23.2822 1.10653 23.1275 0.855C22.9728 0.603468 22.7569 0.395177 22.5 0.249523C22.2432 0.103869 21.9536 0.0255892 21.6583 0.0219727ZM13.8083 7.02197L10.0183 14.172C9.92076 14.3529 9.75575 14.488 9.55913 14.5479C9.36251 14.6079 9.15018 14.5877 8.96831 14.492C8.83374 14.4174 8.72285 14.3065 8.64831 14.172L4.90831 7.09197C4.84387 6.97436 4.81126 6.84197 4.81371 6.70788C4.81616 6.5738 4.85359 6.44268 4.92229 6.3275C4.99099 6.21233 5.08858 6.1171 5.2054 6.05123C5.32221 5.98536 5.45421 5.95115 5.58831 5.95197H13.1283C13.3281 5.9546 13.5189 6.03583 13.6593 6.17808C13.7996 6.32032 13.8783 6.51213 13.8783 6.71197C13.878 6.81919 13.8541 6.92503 13.8083 7.02197Z" fill="#8C8C8C"/>
</svg>
