<svg width="26" height="18" viewBox="0 0 26 18" fill="none" xmlns="http://www.w3.org/2000/svg">
<path d="M23 0H3C2.20435 0 1.44129 0.31607 0.87868 0.878679C0.316071 1.44129 0 2.20435 0 3V15C0 15.7956 0.316071 16.5587 0.87868 17.1213C1.44129 17.6839 2.20435 18 3 18H23C23.7956 18 24.5587 17.6839 25.1213 17.1213C25.6839 16.5587 26 15.7956 26 15V3C26 2.20435 25.6839 1.44129 25.1213 0.878679C24.5587 0.31607 23.7956 0 23 0ZM24 15C24 15.2652 23.8946 15.5196 23.7071 15.7071C23.5196 15.8946 23.2652 16 23 16H3C2.73478 16 2.48043 15.8946 2.29289 15.7071C2.10536 15.5196 2 15.2652 2 15V3C2 2.73478 2.10536 2.48043 2.29289 2.29289C2.48043 2.10536 2.73478 2 3 2H23C23.2652 2 23.5196 2.10536 23.7071 2.29289C23.8946 2.48043 24 2.73478 24 3V15Z" fill="black"/>
<path d="M11.33 13L16.67 9L11.33 5V13Z" fill="black"/>
</svg>
