<svg width="10" height="10" viewBox="0 0 10 10" fill="none" xmlns="http://www.w3.org/2000/svg">
<path d="M0.283364 9.71667C0.360833 9.79478 0.453 9.85677 0.55455 9.89908C0.656099 9.94139 0.76502 9.96317 0.87503 9.96317C0.98504 9.96317 1.09396 9.94139 1.19551 9.89908C1.29706 9.85677 1.38923 9.79478 1.4667 9.71667L5.00003 6.175L8.53336 9.71667C8.61083 9.79478 8.703 9.85677 8.80455 9.89908C8.9061 9.94139 9.01502 9.96317 9.12503 9.96317C9.23504 9.96317 9.34396 9.94139 9.44551 9.89908C9.54706 9.85677 9.63923 9.79478 9.71669 9.71667C9.7948 9.6392 9.8568 9.54703 9.8991 9.44549C9.94141 9.34394 9.96319 9.23502 9.96319 9.12501C9.96319 9.015 9.94141 8.90607 9.8991 8.80453C9.8568 8.70298 9.7948 8.61081 9.71669 8.53334L6.17503 5L9.71669 1.46667C9.79439 1.38897 9.85603 1.29673 9.89808 1.19521C9.94013 1.09369 9.96177 0.984888 9.96177 0.875005C9.96177 0.765122 9.94013 0.656315 9.89808 0.554797C9.85603 0.453279 9.79439 0.361037 9.71669 0.283338C9.639 0.205639 9.54675 0.144005 9.44524 0.101955C9.34372 0.0599047 9.23491 0.0382614 9.12503 0.0382614C9.01515 0.0382614 8.90634 0.0599047 8.80482 0.101955C8.7033 0.144005 8.61106 0.205639 8.53336 0.283338L5.00003 3.82501L1.4667 0.283338C1.30978 0.126418 1.09695 0.0382614 0.87503 0.0382614C0.653112 0.0382614 0.440284 0.126418 0.283364 0.283338C0.126444 0.440258 0.038287 0.653087 0.038287 0.875005C0.038287 1.09692 0.126444 1.30975 0.283364 1.46667L3.82503 5L0.283364 8.53334C0.205257 8.61081 0.143262 8.70298 0.100955 8.80453C0.0586473 8.90607 0.0368652 9.015 0.0368652 9.12501C0.0368652 9.23502 0.0586473 9.34394 0.100955 9.44549C0.143262 9.54703 0.205257 9.6392 0.283364 9.71667Z" fill="white"/>
</svg>
